<?xml version="1.0" encoding="UTF-8"?>
<svg id="Ebene_1" data-name="Ebene 1" xmlns="http://www.w3.org/2000/svg" viewBox="0 0 50 50">
  <defs>
    <style>
      .cls-1 {
        stroke: #202346;
        stroke-width: .75px;
      }

      .cls-1, .cls-2, .cls-3 {
        stroke-miterlimit: 10;
      }

      .cls-1, .cls-3 {
        fill: none;
      }

      .cls-2 {
        stroke: #d3343f;
      }

      .cls-2, .cls-4 {
        fill: #d3343f;
      }

      .cls-4 {
        stroke-width: 0px;
      }

      .cls-3 {
        stroke: #fff;
        stroke-width: .5px;
      }
    </style>
  </defs>
  <g>
    <path class="cls-1" d="m15.19,31.46c0,5.32,4.39,9.64,9.81,9.64s9.81-4.31,9.81-9.64c0,0,0-14.67,0-14.67,0-5.32-4.39-9.64-9.81-9.64s-9.81,4.31-9.81,9.64c0,0,0,14.67,0,14.67Z"/>
    <path class="cls-1" d="m25,18.47c5.42,0,9.81-.75,9.81-1.68"/>
    <path class="cls-1" d="m15.19,16.79c0,.93,4.39,1.68,9.81,1.68"/>
    <path class="cls-2" d="m25,21.57c-1.07,0-1.94-.85-1.94-1.9v-5.34c0-1.05.87-1.9,1.94-1.9s1.94.85,1.94,1.9v5.34c0,1.05-.87,1.9-1.94,1.9Z"/>
    <g>
      <line class="cls-3" x1="23.97" y1="19.94" x2="26.04" y2="19.94"/>
      <line class="cls-3" x1="23.97" y1="18.47" x2="26.04" y2="18.47"/>
      <line class="cls-3" x1="23.97" y1="17" x2="26.04" y2="17"/>
      <line class="cls-3" x1="23.97" y1="15.52" x2="26.04" y2="15.52"/>
      <line class="cls-3" x1="23.97" y1="14.05" x2="26.04" y2="14.05"/>
    </g>
  </g>
  <polygon class="cls-4" points="21.89 5.39 20.92 4.49 25 0 29.08 4.49 28.11 5.39 25.66 2.67 25.66 10.37 24.34 10.37 24.34 2.67 21.89 5.39"/>
  <polygon class="cls-4" points="28.11 28.89 29.08 29.79 25 34.27 20.92 29.79 21.89 28.89 24.34 31.6 24.34 23.9 25.66 23.9 25.66 31.6 28.11 28.89"/>
</svg>