<?xml version="1.0" encoding="UTF-8"?>
<svg id="Ebene_1" data-name="Ebene 1" xmlns="http://www.w3.org/2000/svg" viewBox="0 0 52.93 52.93">
  <defs>
    <style>
      .cls-1 {
        fill: none;
        stroke: #202346;
        stroke-miterlimit: 10;
        stroke-width: .75px;
      }

      .cls-2 {
        fill: #fff;
        font-family: IBMPlexSans-Bold, 'IBM Plex Sans';
        font-size: 8.89px;
        font-weight: 700;
      }

      .cls-3 {
        fill: #d3343f;
        stroke-width: 0px;
      }
    </style>
  </defs>
  <path class="cls-3" d="m47.52,33.99v-15.05c0-1.66-1.34-3-3-3H8.41c-1.66,0-3,1.34-3,3v15.05c0,1.66,1.34,3,3,3h36.11c1.66,0,3-1.34,3-3Z"/>
  <text class="cls-2" transform="translate(9.85 26.79)"><tspan x="0" y="0">CTRL</tspan></text>
  <path class="cls-1" d="m47.52,33.99v-15.05c0-1.66-1.34-3-3-3H8.41c-1.66,0-3,1.34-3,3v15.05c0,1.66,1.34,3,3,3h36.11c1.66,0,3-1.34,3-3Z"/>
</svg>