<?xml version="1.0" encoding="UTF-8"?>
<svg id="Ebene_1" data-name="Ebene 1" xmlns="http://www.w3.org/2000/svg" viewBox="0 0 41 52.93">
  <defs>
    <style>
      .cls-1 {
        fill: #202346;
      }

      .cls-1, .cls-2 {
        stroke-width: 0px;
      }

      .cls-2 {
        fill: #d3343f;
      }
    </style>
  </defs>
  <polygon class="cls-2" points="26.15 12.37 24.83 12.33 24.55 18.38 30.6 18.09 30.55 16.77 26.9 16.96 31.17 12.69 30.24 11.76 25.97 16.03 26.15 12.37"/>
  <polygon class="cls-2" points="8.51 28.65 8.56 29.97 12.21 29.78 7.94 34.05 8.88 34.99 13.15 30.72 12.96 34.37 14.28 34.42 14.57 28.36 8.51 28.65"/>
  <path class="cls-1" d="m21.45,20.72v10.83s-2.44-1.76-2.44-1.76c-.55-.4-1.28-.43-1.87-.08-.81.48-1.07,1.52-.59,2.33l3.29,5.54c1.14,1.96,3.13,3.28,5.38,3.54.25.03.51.04.76.04,3.9,0,7.07-3.16,7.07-7.07v-4.53c0-1.01-.62-1.65-1.39-1.65h-.03c-.74,0-1.35.6-1.35,1.34v-1.29c0-.74-.6-1.34-1.34-1.34h-.03s0,0,0,0c-.77,0-1.39.62-1.39,1.39v-1.24c.01-.73-.53-1.35-1.25-1.44-.05,0-.09,0-.14,0-.77,0-1.39.62-1.39,1.39v-5.99c0-.91-.74-1.65-1.65-1.65-.91,0-1.65.74-1.65,1.65Z"/>
</svg>