<?xml version="1.0" encoding="UTF-8"?>
<svg id="Ebene_1" data-name="Ebene 1" xmlns="http://www.w3.org/2000/svg" viewBox="0 0 41 52.93">
  <defs>
    <style>
      .cls-1 {
        fill: #202346;
      }

      .cls-1, .cls-2, .cls-3 {
        stroke-width: 0px;
      }

      .cls-2 {
        fill: #d3343f;
      }

      .cls-3 {
        fill: #fff;
      }
    </style>
  </defs>
  <g>
    <path class="cls-3" d="m18.49,20.95c1.47-1.47,1.47-3.85,0-5.32s-3.85-1.47-5.32,0c-.55.55-.89,1.22-1.03,1.93-.71.14-1.38.48-1.93,1.03-1.47,1.47-1.47,3.85,0,5.32,1.47,1.47,3.85,1.47,5.32,0"/>
    <path class="cls-1" d="m32.49,28.88l-3.65-3.65c-.81-.81-1.83-.83-2.44-.21l-.03.03c-.6.6-.61,1.57,0,2.17l-1.04-1.04c-.6-.6-1.57-.6-2.17,0l-.03.03s0,0,0,0c-.59.59-.61,1.52-.08,2.14l-5.79-5.79c-.73-.73-1.92-.73-2.65,0-.73.73-.73,1.92,0,2.65l6.04,6.04-.42.4-6.04-6.04c-.73-.73-1.92-.73-2.65,0s-.73,1.92,0,2.65l8.73,8.73-3.38.55c-.76.12-1.38.69-1.57,1.44-.26,1.04.36,2.09,1.4,2.36l7.12,1.81c2.5.67,5.16.12,7.19-1.48.23-.18,1.26-1.2,1.47-1.4,3.15-3.14,3.15-8.24,0-11.39Z"/>
  </g>
  <polygon class="cls-2" points="7.12 17.53 6.15 16.63 10.23 12.15 14.31 16.63 13.34 17.53 10.89 14.82 10.89 20.85 9.57 20.85 9.57 14.82 7.12 17.53"/>
  <polygon class="cls-2" points="13.34 33.36 14.31 34.26 10.23 38.75 6.15 34.26 7.12 33.36 9.57 36.08 9.57 30.04 10.89 30.04 10.89 36.08 13.34 33.36"/>
</svg>