<?xml version="1.0" encoding="UTF-8"?>
<svg id="Ebene_1" data-name="Ebene 1" xmlns="http://www.w3.org/2000/svg" viewBox="0 0 50 50">
  <defs>
    <style>
      .cls-1 {
        fill: none;
        stroke: #202346;
        stroke-miterlimit: 10;
        stroke-width: .75px;
      }

      .cls-2 {
        fill: #202346;
      }

      .cls-2, .cls-3, .cls-4 {
        stroke-width: 0px;
      }

      .cls-3 {
        fill: #d3343f;
      }

      .cls-4 {
        fill: #fff;
      }
    </style>
  </defs>
  <rect class="cls-1" x="5.49" y="9.35" width="35.66" height="29.04" rx="2" ry="2"/>
  <g>
    <path class="cls-4" d="m28.15,19.48c1.47-1.47,1.47-3.85,0-5.32s-3.85-1.47-5.32,0c-.55.55-.89,1.22-1.03,1.93-.71.14-1.38.48-1.93,1.03-1.47,1.47-1.47,3.85,0,5.32s3.85,1.47,5.32,0"/>
    <path class="cls-2" d="m42.15,27.42l-3.65-3.65c-.81-.81-1.83-.83-2.44-.21l-.03.03c-.6.6-.61,1.57,0,2.17l-1.04-1.04c-.6-.6-1.57-.6-2.17,0l-.03.03s0,0,0,0c-.59.59-.61,1.52-.08,2.14l-5.79-5.79c-.73-.73-1.92-.73-2.65,0-.73.73-.73,1.92,0,2.65l6.04,6.04-.42.4-6.04-6.04c-.73-.73-1.92-.73-2.65,0s-.73,1.92,0,2.65l8.73,8.73-3.38.55c-.76.12-1.38.69-1.57,1.44-.26,1.04.36,2.09,1.4,2.36l7.12,1.81c2.5.67,5.16.12,7.19-1.48.23-.18,1.26-1.2,1.47-1.4,3.15-3.14,3.15-8.24,0-11.39Z"/>
  </g>
  <polygon class="cls-3" points="16.78 16.07 15.81 15.17 19.89 10.68 23.97 15.17 23 16.07 20.55 13.35 20.55 19.39 19.23 19.39 19.23 13.35 16.78 16.07"/>
  <polygon class="cls-3" points="23 31.9 23.97 32.8 19.89 37.29 15.81 32.8 16.78 31.9 19.23 34.62 19.23 28.58 20.55 28.58 20.55 34.61 23 31.9"/>
</svg>