<?xml version="1.0" encoding="UTF-8"?>
<svg id="Ebene_1" data-name="Ebene 1" xmlns="http://www.w3.org/2000/svg" viewBox="0 0 50 50">
  <defs>
    <style>
      .cls-1, .cls-2 {
        stroke: #202346;
        stroke-width: .75px;
      }

      .cls-1, .cls-2, .cls-3 {
        stroke-miterlimit: 10;
      }

      .cls-1, .cls-3 {
        fill: none;
      }

      .cls-2 {
        fill: #fff;
      }

      .cls-4 {
        fill: #d3343f;
        stroke-width: 0px;
      }

      .cls-3 {
        stroke: #fff;
        stroke-width: .5px;
      }
    </style>
  </defs>
  <g>
    <path class="cls-4" d="m15.1,23.59c0,.93,4.39,1.68,9.81,1.68v-11.32l-4.74,1.2-3.02,2.27-1.53,3.56-.52,2.61Z"/>
    <path class="cls-1" d="m15.1,38.27c0,5.32,4.39,9.64,9.81,9.64s9.81-4.31,9.81-9.64c0,0,0-14.67,0-14.67,0-5.32-4.39-9.64-9.81-9.64s-9.81,4.31-9.81,9.64c0,0,0,14.67,0,14.67Z"/>
    <path class="cls-1" d="m24.91,25.28c5.42,0,9.81-.75,9.81-1.68"/>
    <path class="cls-1" d="m15.1,23.59c0,.93,4.39,1.68,9.81,1.68"/>
    <path class="cls-2" d="m24.92,28.38c-1.07,0-1.94-.85-1.94-1.9v-5.34c0-1.05.87-1.9,1.94-1.9s1.94.85,1.94,1.9v5.34c0,1.05-.87,1.9-1.94,1.9Z"/>
    <g>
      <line class="cls-3" x1="23.88" y1="26.75" x2="25.95" y2="26.75"/>
      <line class="cls-3" x1="23.88" y1="25.28" x2="25.95" y2="25.28"/>
      <line class="cls-3" x1="23.88" y1="23.8" x2="25.95" y2="23.8"/>
      <line class="cls-3" x1="23.88" y1="22.33" x2="25.95" y2="22.33"/>
      <line class="cls-3" x1="23.88" y1="20.86" x2="25.95" y2="20.86"/>
    </g>
  </g>
  <polygon class="cls-4" points="21.8 7.48 20.84 6.58 24.92 2.1 28.99 6.58 28.03 7.48 25.58 4.77 25.58 12.47 24.26 12.47 24.26 4.77 21.8 7.48"/>
  <polygon class="cls-4" points="8.31 26.71 7.41 27.67 2.92 23.59 7.41 19.52 8.31 20.48 5.59 22.94 13.29 22.94 13.29 24.26 5.59 24.26 8.31 26.71"/>
  <polygon class="cls-4" points="41.69 20.48 42.59 19.52 47.08 23.6 42.59 27.67 41.69 26.71 44.41 24.25 36.71 24.25 36.71 22.93 44.41 22.93 41.69 20.48"/>
</svg>